<svg width="21" height="21" viewBox="0 0 21 21" fill="none" xmlns="http://www.w3.org/2000/svg">
<path fill-rule="evenodd" clip-rule="evenodd" d="M2.06002 20.974C1.47151 20.9734 0.994568 20.4965 0.994019 19.9079C1.08682 16.0791 3.53356 12.705 7.14399 11.427C5.25008 9.8125 4.56339 7.18854 5.42367 4.85327C6.28395 2.51801 8.50877 0.966614 10.9975 0.966583C13.4861 0.966583 15.711 2.51794 16.5713 4.85321C17.4316 7.18845 16.7449 9.81244 14.8511 11.4269C18.4614 12.7054 20.9078 16.08 21 19.909C20.9989 20.4975 20.5215 20.974 19.933 20.974H2.06002ZM3.21603 18.843H18.778C18.199 15.443 14.886 12.8499 10.997 12.8499C7.10803 12.8499 3.79403 15.443 3.21503 18.843H3.21603ZM7.18905 6.90994C7.18905 9.0127 8.89334 10.7174 10.996 10.718C13.0988 10.7185 14.8039 9.01468 14.805 6.91199C14.8062 4.80927 13.1028 3.10364 11 3.10196C8.89629 3.10193 7.19025 4.80621 7.18805 6.90994H7.18905Z" fill="#879EB1"/>
</svg>
