<svg width="18" height="22" viewBox="0 0 18 22" fill="none" xmlns="http://www.w3.org/2000/svg">
<path fill-rule="evenodd" clip-rule="evenodd" d="M2.114 21.974C0.971874 21.9975 0.0262337 21.0921 3.8147e-06 19.95L0 4.88995C0.0262184 3.74222 0.976173 2.83209 2.12399 2.85498L6.11 2.85495C6.61609 1.71198 7.74852 0.974945 8.9985 0.974945C10.2485 0.974945 11.3809 1.71198 11.887 2.85495H15.874C17.0222 2.83093 17.9733 3.74081 18 4.88898V19.95C17.9738 21.0921 17.0281 21.9975 15.886 21.974H2.114ZM2.28497 19.786H15.715V5.04297H14.725V7.48599C14.6923 8.59006 13.7732 9.45999 12.669 9.43198H5.32998C4.79915 9.44705 4.28413 9.25034 3.89845 8.88528C3.51277 8.52029 3.28811 8.01681 3.27398 7.48599V5.043H2.28498L2.28497 19.786ZM5.55798 7.24399H12.44V5.04398H11.888C11.3822 6.18753 10.2494 6.92511 8.99899 6.92511C7.74855 6.92511 6.61581 6.18753 6.10999 5.04398H5.55798V7.24399ZM8.17702 3.944C8.16272 4.27982 8.35403 4.59055 8.66028 4.72897C8.96653 4.8674 9.32618 4.80573 9.56879 4.57315C9.81141 4.34058 9.88823 3.98386 9.76286 3.67203C9.63748 3.3602 9.33511 3.15594 8.99902 3.15604C8.78481 3.15204 8.5778 3.23337 8.42361 3.38211C8.26943 3.53085 8.18071 3.7348 8.17702 3.94901V3.944Z" fill="#879EB1"/>
</svg>
