<svg width="21" height="21" viewBox="0 0 21 21" fill="none" xmlns="http://www.w3.org/2000/svg">
<path fill-rule="evenodd" clip-rule="evenodd" d="M2.06002 20.9387C1.47151 20.9381 0.994568 20.4612 0.994019 19.8726C1.08682 16.0439 3.53356 12.6697 7.14399 11.3917C5.25008 9.77722 4.56339 7.15326 5.42367 4.81799C6.28395 2.48273 8.50877 0.931335 10.9975 0.931305C13.4861 0.931305 15.711 2.48267 16.5713 4.81793C17.4316 7.15317 16.7449 9.77716 14.8511 11.3917C18.4614 12.6701 20.9078 16.0447 21 19.8737C20.9989 20.4622 20.5215 20.9387 19.933 20.9387H2.06002ZM3.21603 18.8077H18.778C18.199 15.4077 14.886 12.8147 10.997 12.8147C7.10803 12.8147 3.79403 15.4077 3.21503 18.8077H3.21603ZM7.18905 6.87466C7.18905 8.97742 8.89334 10.6821 10.996 10.6827C13.0988 10.6833 14.8039 8.9794 14.805 6.87671C14.8062 4.77399 13.1028 3.06836 11 3.06668C8.89629 3.06665 7.19025 4.77094 7.18805 6.87466H7.18905Z" fill="#F28D4F"/>
</svg>
