<svg width="20" height="22" viewBox="0 0 20 22" fill="none" xmlns="http://www.w3.org/2000/svg">
<path fill-rule="evenodd" clip-rule="evenodd" d="M13 21.9387H3C1.34626 21.9387 0.00440598 20.6004 0 18.9467V7.97869C0.000644684 7.6704 0.14344 7.37966 0.387005 7.19069L9.387 0.210697C9.74813 -0.0702324 10.2539 -0.0702324 10.615 0.210697L19.615 7.19069C19.8582 7.37987 20.0006 7.67058 20.001 7.97869V18.9457C19.9972 20.6002 18.6546 21.9392 17 21.9387H13ZM17 19.9387C17.5523 19.9387 18 19.491 18 18.9387V8.4587L10 2.2587L2 8.4587V18.9387C2 19.491 2.44772 19.9387 3 19.9387H6V10.9647C6 10.4124 6.44772 9.96469 7 9.96469H13C13.5523 9.96469 14 10.4124 14 10.9647V19.9387H17ZM12 19.9387V11.9617H8V19.9387H12Z" fill="#879EB1"/>
</svg>
