<svg width="30" height="30" viewBox="0 0 30 30" fill="none" xmlns="http://www.w3.org/2000/svg">
<circle cx="15" cy="15" r="15" fill="#285668"/>
<path d="M20.5738 14.4885L14.4649 8.42314C14.3309 8.28906 14.1716 8.18264 13.996 8.11002C13.8204 8.03739 13.6321 8 13.4419 8C13.2517 8 13.0634 8.03739 12.8878 8.11002C12.7123 8.18264 12.5529 8.28906 12.419 8.42314C12.1506 8.69116 12 9.05373 12 9.43165C12 9.80956 12.1506 10.1721 12.419 10.4402L17.5194 15.5041L12.419 20.5681C12.1506 20.8361 12 21.1987 12 21.5766C12 21.9545 12.1506 22.3171 12.419 22.5851C12.5536 22.7177 12.7133 22.8226 12.8888 22.8938C13.0643 22.965 13.2523 23.0011 13.4419 23C13.6315 23.0011 13.8195 22.965 13.9951 22.8938C14.1706 22.8226 14.3303 22.7177 14.4649 22.5851L20.5738 16.5198C20.7089 16.3868 20.816 16.2286 20.8892 16.0543C20.9623 15.88 21 15.693 21 15.5041C21 15.3153 20.9623 15.1283 20.8892 14.954C20.816 14.7797 20.7089 14.6215 20.5738 14.4885Z" fill="#FBF5F4"/>
</svg>
