<svg width="18" height="22" viewBox="0 0 18 22" fill="none" xmlns="http://www.w3.org/2000/svg">
<path fill-rule="evenodd" clip-rule="evenodd" d="M2.114 21.9387C0.971874 21.9622 0.0262337 21.0568 3.8147e-06 19.9147L0 4.85468C0.0262184 3.70694 0.976173 2.79681 2.12399 2.8197L6.11 2.81967C6.61609 1.6767 7.74852 0.939667 8.9985 0.939667C10.2485 0.939667 11.3809 1.6767 11.887 2.81967H15.874C17.0222 2.79565 17.9733 3.70554 18 4.8537V19.9147C17.9738 21.0568 17.0281 21.9622 15.886 21.9387H2.114V21.9387ZM2.28497 19.7507H15.715V5.00769H14.725V7.45071C14.6923 8.55478 13.7732 9.42471 12.669 9.3967H5.32998C4.79915 9.41177 4.28413 9.21506 3.89845 8.85001C3.51277 8.48502 3.28811 7.98154 3.27398 7.45071V5.00772H2.28498L2.28497 19.7507ZM5.55798 7.20871H12.44V5.0087H11.888C11.3822 6.15225 10.2494 6.88983 8.99899 6.88983C7.74855 6.88983 6.61581 6.15225 6.10999 5.0087H5.55798V7.20871ZM8.17702 3.90872C8.16272 4.24454 8.35403 4.55527 8.66028 4.6937C8.96653 4.83212 9.32618 4.77045 9.56879 4.53787C9.81141 4.3053 9.88823 3.94858 9.76286 3.63675C9.63748 3.32492 9.33511 3.12067 8.99902 3.12076C8.78481 3.11676 8.5778 3.19809 8.42361 3.34683C8.26943 3.49557 8.18071 3.69952 8.17702 3.91373V3.90872Z" fill="#F28D4F"/>
</svg>
